<svg xmlns="http://www.w3.org/2000/svg" width="15" height="15" viewBox="0 0 15 15">
    <path data-name="Path 958" d="M7.5 0A7.5 7.5 0 1 1 0 7.5 7.5 7.5 0 0 1 7.5 0z" style="fill:#ff6564"/>
    <g data-name="Group 3249">
        <path data-name="Subtraction 40" d="M4.169 7.227v-.006L0 1.562l.026-.022A6.314 6.314 0 0 1 1.074.822l4.358 4.692-1.259 1.71zm2.088-2.833L2.417.257A6.146 6.146 0 0 1 4.171 0a6.567 6.567 0 0 1 4.14 1.535l.032.027-.449.608-1.405 1.91-.231.313z" transform="translate(3.329 4.128)" style="fill:rgba(0,0,0,.5)"/>
        <path data-name="Subtraction 39" d="M7.488 11.361v-.005l-.015-.033-2.885-3.934.03-.026h.005l.019-.019a4.343 4.343 0 0 1 1.246-.789l2.867 3.083-1.235 1.685-.016.033h-.007zm2.09-2.846L7.47 6.244h.061a4.766 4.766 0 0 1 2.926 1.011h.005a.125.125 0 0 1 .024.019l-.907 1.24z"/>
        <path data-name="Line 139" d="M9.54 10.637 3.617 4.258l.666-.62 5.925 6.379z"/>
    </g>
</svg>
