<svg xmlns="http://www.w3.org/2000/svg" width="16" height="16" viewBox="0 0 16 16">
    <path data-name="Path 958" d="M8 0a8 8 0 1 1-8 8 8 8 0 0 1 8-8z" style="fill:#3de645"/>
    <g data-name="Group 3039">
        <path data-name="Path 915" d="m8.858 5.26.466-.633A6.907 6.907 0 0 0 4.975 3 6.882 6.882 0 0 0 .63 4.628l4.342 5.9v.008L7.393 7.25z" transform="translate(3.023 1.233)" style="fill:rgba(0,0,0,.5)"/>
        <path data-name="Union 7" d="m7.977 11.767-.025-.035-3.03-4.222c.011-.009.031-.03.057-.05a4.391 4.391 0 0 1 2.962-1.18h.066a5.113 5.113 0 0 1 3.148 1.133l.027.022-3.186 4.3-.014.028z"/>
    </g>
</svg>
