<svg xmlns="http://www.w3.org/2000/svg" width="18" height="18" viewBox="0 0 18 18">
    <path data-name="Rectangle 1963" style="fill:none" d="M0 0h18v18H0z"/>
    <g data-name="Group 3020">
        <path data-name="Path 915" d="m15.772 7.2.858-1.176A12.65 12.65 0 0 0 8.627 3a12.6 12.6 0 0 0-8 3.024L8.62 16.986l.007.014.006-.007 4.443-6.1z" transform="translate(.369 -1)" style="fill:rgba(0,0,0,.3)"/>
        <path data-name="Union 7" d="m8.99 16.001-.005-.006-.007.006-.006-.007-.03-.06-5.684-7.846c.022-.017.058-.049.107-.094a8.28 8.28 0 0 1 5.557-2.193h.125a9.313 9.313 0 0 1 5.781 2.05l.056.045-5.855 8.035-.031.062-.006.006z"/>
    </g>
</svg>
