<svg xmlns="http://www.w3.org/2000/svg" width="48" height="48" viewBox="0 0 48 48">
    <defs>
        <filter id="feu6fzn9pa" x="0" y="0" width="48" height="48" filterUnits="userSpaceOnUse">
            <feOffset/>
            <feGaussianBlur stdDeviation="1" result="blur"/>
            <feFlood flood-opacity=".161"/>
            <feComposite operator="in" in2="blur"/>
            <feComposite in="SourceGraphic"/>
        </filter>
    </defs>
    <g style="filter:url(#feu6fzn9pa)">
        <g data-name="Path 958" style="fill:#ff6564">
            <path d="M21 41.5a20.432 20.432 0 0 1-14.496-6.004A20.432 20.432 0 0 1 .5 21 20.432 20.432 0 0 1 6.504 6.504 20.432 20.432 0 0 1 21 .5a20.432 20.432 0 0 1 14.496 6.004A20.432 20.432 0 0 1 41.5 21a20.432 20.432 0 0 1-6.004 14.496A20.432 20.432 0 0 1 21 41.5z" style="stroke:none" transform="translate(3 3)"/>
            <path d="M21 1A19.935 19.935 0 0 0 6.858 6.858 19.935 19.935 0 0 0 1 21a19.935 19.935 0 0 0 5.858 14.142A19.935 19.935 0 0 0 21 41a19.935 19.935 0 0 0 14.142-5.858A19.935 19.935 0 0 0 41 21a19.935 19.935 0 0 0-5.858-14.142A19.935 19.935 0 0 0 21 1m0-1c11.598 0 21 9.402 21 21s-9.402 21-21 21S0 32.598 0 21 9.402 0 21 0z" style="fill:#000;stroke:none" transform="translate(3 3)"/>
        </g>
    </g>
    <g data-name="Group 3249">
        <path data-name="Subtraction 40" d="m11.905 20.635-.011-.017L0 4.459.075 4.4a18.029 18.029 0 0 1 2.991-2.05l12.444 13.4-3.594 4.883zm5.96-8.089L6.9.735A17.55 17.55 0 0 1 11.909 0a18.751 18.751 0 0 1 11.823 4.382c.041.034.072.058.09.077L22.541 6.2l-4.012 5.454-.659.893z" transform="translate(12 14.409)" style="fill:rgba(0,0,0,.5)"/>
        <path data-name="Subtraction 39" d="m23.888 35.062-.007-.012-.042-.1-8.243-11.23c.019-.015.053-.043.087-.075l.013-.011.053-.049a12.4 12.4 0 0 1 3.573-2.246l8.174 8.801-3.528 4.81-.045.094v.011h-.012v-.005l-.019.011zm5.957-8.129-6.021-6.483h.172a13.609 13.609 0 0 1 8.356 2.888l.015.008a.356.356 0 0 1 .068.055l-2.586 3.531z"/>
        <path data-name="Line 139" d="M29.734 32.994 12.821 14.779l1.906-1.77 16.914 18.215z"/>
    </g>
</svg>
