<svg xmlns="http://www.w3.org/2000/svg" width="15.002" height="15.002" viewBox="0 0 15.002 15.002">
    <path data-name="Path 958" d="M7.5 0A7.5 7.5 0 1 1 0 7.5 7.5 7.5 0 0 1 7.5 0z" style="fill:#ffdf31"/>
    <g data-name="Group 3039">
        <path data-name="Path 915" d="m8.683 5.212.456-.619A6.76 6.76 0 0 0 4.883 3 6.736 6.736 0 0 0 .63 4.593l4.25 5.774v.007l2.369-3.215z" transform="translate(2.585 1.078)" style="fill:rgba(0,0,0,.5)"/>
        <path data-name="Union 7" d="m7.447 11.452-.015-.03-2.975-4.14.056-.05a4.3 4.3 0 0 1 2.898-1.15h.065a5 5 0 0 1 3.081 1.109l.026.021-3.119 4.209-.014.028z"/>
    </g>
</svg>
