<svg xmlns="http://www.w3.org/2000/svg" width="18" height="18" viewBox="0 0 18 18">
    <path data-name="Rectangle 1963" style="fill:none" d="M0 0h18v18H0z"/>
    <g data-name="Group 3020">
        <path data-name="Path 915" d="m15.772 7.2.858-1.176A12.65 12.65 0 0 0 8.627 3a12.6 12.6 0 0 0-8 3.024L8.62 16.986l.007.014.006-.007 4.443-6.1z" transform="translate(.37 -1)" style="fill:rgba(57,131,61,.3)"/>
        <path data-name="Union 7" d="m5.732 10.2-.005-.006-.007.006-.006-.007-.03-.06L0 2.287c.022-.017.058-.049.107-.094A8.28 8.28 0 0 1 5.664 0h.125a9.313 9.313 0 0 1 5.781 2.05l.056.045-5.855 8.035-.031.062-.006.006z" transform="translate(3.259 5.801)" style="fill:#3c8540"/>
    </g>
</svg>
