<svg xmlns="http://www.w3.org/2000/svg" width="16" height="16" viewBox="0 0 16 16">
    <g transform="translate(-518 -459.879)">
        <rect data-name="Rectangle 1948" width="16" height="16" rx="8" transform="translate(518 459.879)" style="fill:#39d8ff"/>
        <g data-name="Group 3169">
            <path data-name="Subtraction 21" d="M524.732 472.765h-2.123a.8.8 0 0 1 0-1.595h2.123v1.594zm.344-.022v-1.551a.8.8 0 0 1 0 1.551zm.956-.815a1.143 1.143 0 0 0-1.14-1.1h-2.283a1.137 1.137 0 0 0-1.141 1.092.014.014 0 0 1 0-.006V470.625a1.538 1.538 0 0 1 .49-1.114 3.412 3.412 0 0 1 1.187-.716c.081-.031.165-.062.252-.09l-.967 1.758h2.646v-2.115a8.02 8.02 0 0 1 .86-.05 8.336 8.336 0 0 1 2.791.5c.764.295 1.676.852 1.676 1.83v1.246h-4.371v.054zm-.1-4.316a2.408 2.408 0 0 1-2.403-2.41v-.064a2.405 2.405 0 0 1 2.302-2.336h.292c.032 0 .074.006.115.011h.015l.043.006h.011l.053.009.114.023h.006l.046.011h.013l.045.012h.009l.105.033.018.006.025.008h.033l.013.006h.007l.034.046h.006a2.4 2.4 0 0 1 1.5 2.23v.039a.024.024 0 0 1 0 .01v.009a2.414 2.414 0 0 1-.31 1.141l-.011.018-.011.018a.2.2 0 0 0-.012.019l-.005.008-.005.008a2.412 2.412 0 0 1-1.883 1.129h-.162zm-1.057-4.332a2.2 2.2 0 0 0-.382.267l3.368 2.72a2.172 2.172 0 0 0 .264-.86zm.643-.233a2.192 2.192 0 0 0-.614.217l3.228 1.862a2.168 2.168 0 0 0-.17-.772l-2.444-1.307z"/>
            <path data-name="Path 924" d="M14732 6037.66v-1.568s.412-1.939 4.643-1.939 4.3 1.939 4.3 1.939v1.568h-4.4" transform="translate(-14210.528 -5565.76)" style="fill:none;stroke:#000;stroke-width:.5px"/>
        </g>
    </g>
</svg>
