<svg xmlns="http://www.w3.org/2000/svg" width="16" height="16" viewBox="0 0 16 16">
    <g data-name="Group 3276" transform="translate(-672 -248)">
        <rect data-name="Rectangle 2016" width="16" height="16" rx="8" transform="translate(672 248)" style="fill:#39d8ff"/>
        <g data-name="Union 41" style="fill:rgba(0,0,0,.35)">
            <path d="m6.445 11.146-.377-1.762-.178-.835-.528.672-.26.331.05-.443.096-.863-.718.487-1.281.87.763-1.17.403-.618H3.304l.23-.134.882-.516-.998-.22-.29-.065-.043-.01h-.03l-1.107-.254-.029-.007 1.43-.284.848-.168-.676-.537-.549-.436h1.375l-.456-.634-.663-.922 1.22.8.62.407V3.448l.253.336.543.72.17-.886.308-1.607.377 1.762.179.833.527-.669.261-.332-.05.444-.098.864.72-.487 1.287-.872-.765 1.173-.403.618H9.48l-.225.131-.879.512.992.224.308.07.044.01h.013l.622.144.508.115-1.423.285-.844.17.674.536.547.434H8.439l.456.634.663.921-1.22-.801-.62-.407v1.388l-.253-.336-.543-.72-.17.885-.307 1.606z" style="stroke:none" transform="translate(673.605 249.421)"/>
            <path d="m6.424 9.133.275-1.438.62.821v-.934l.652.428-.313-.434h1.014l-.998-.793 1.274-.256-1.65-.373.701-.409h-.36l.487-.747-1.084.734.088-.775-.445.565-.321-1.5-.277 1.441-.62-.82v.933l-.654-.43.315.438h-1.01l1.004.797-1.264.251 1.642.364-.718.419h.372l-.482.738 1.07-.726-.086.772.446-.57.322 1.504m.042 4.026-.789-3.691-1.128 1.438.205-1.842-2.928 1.988 1.85-2.837h-1.85l1.506-.88-.29-.064H3.01l-1.152-.266L0 6.585l.028-.005L0 6.575l.88-.167 2.392-.475-1.446-1.15h1.74L1.643 2.112l3.025 1.983v-1.84l.973 1.29L6.32 0l.79 3.69 1.132-1.437-.21 1.841 2.93-1.983-1.848 2.834h1.848l-1.506.877.309.07h.014l.667.155 2.342.528-.025.005.025.006-.817.15-2.452.492 1.443 1.148H9.22l1.926 2.676-3.028-1.988v1.842l-.972-1.29-.68 3.543z" style="fill:#000;stroke:none" transform="translate(673.605 249.421)"/>
        </g>
    </g>
</svg>
