<svg xmlns="http://www.w3.org/2000/svg" width="48" height="48" viewBox="0 0 48 48">
    <defs>
        <filter id="6z4jpvx4ua" x="0" y="0" width="48" height="48" filterUnits="userSpaceOnUse">
            <feOffset/>
            <feGaussianBlur stdDeviation="1" result="blur"/>
            <feFlood flood-opacity=".161"/>
            <feComposite operator="in" in2="blur"/>
            <feComposite in="SourceGraphic"/>
        </filter>
    </defs>
    <g style="filter:url(#6z4jpvx4ua)">
        <g data-name="Rectangle 2016" transform="translate(3 3)" style="fill:#39d8ff;stroke:#000">
            <rect width="42" height="42" rx="21" style="stroke:none"/>
            <rect x=".5" y=".5" width="41" height="41" rx="20.5" style="fill:none"/>
        </g>
    </g>
    <g data-name="Union 41" style="fill:rgba(0,0,0,.35)">
        <path d="m16.52 29.422-.99-4.75-.446-2.137-1.327 1.734-.717.936.14-1.28.237-2.183-1.802 1.253-3.419 2.378 2.07-3.252.979-1.537h-2.95l.757-.453 2.14-1.281-2.432-.552-.744-.17-.11-.024H7.83l-2.84-.67-.306-.072 3.901-.793 2.07-.422-1.638-1.334L7.49 13.57h3.575l-1.106-1.574-1.834-2.613 3.282 2.206 1.558 1.047V8.966l.689.936 1.364 1.854.424-2.263.814-4.346.993 4.752.445 2.13 1.326-1.725.721-.938-.142 1.282-.242 2.185 1.806-1.253 3.434-2.383-2.074 3.26-.978 1.537H24.476l-.746.445-2.132 1.272 2.419.56.79.184.112.026h.033l1.597.38h.006l1.528.354-3.881.798-2.062.425 1.632 1.33 1.522 1.24H21.71l1.106 1.575 1.834 2.611-3.281-2.207-1.559-1.049v3.67l-.689-.936-1.364-1.854-.424 2.263-.813 4.341z" style="stroke:none" transform="translate(7.609 6.713)"/>
        <path d="m16.468 24.27.73-3.9 1.612 2.192V20.06l1.918 1.29-.943-1.342h2.699l-2.608-2.125 3.528-.727-4.451-1.031 1.896-1.131h-1.126l1.365-2.146-2.969 2.06.233-2.096-1.193 1.551-.85-4.07-.732 3.91-1.613-2.191v2.5l-1.924-1.293.948 1.35H10.3l2.624 2.137-3.511.715 4.434 1.006-1.934 1.157h1.154l-1.352 2.123 2.934-2.04-.228 2.089 1.197-1.563.85 4.077m.105 10.304-2.022-9.697-2.892 3.777.527-4.838-7.509 5.223 4.746-7.455H4.677l3.862-2.311-.745-.169h-.082l-2.953-.697-4.763-1.104.072-.014-.072-.014 2.258-.439 6.13-1.247-3.707-3.02H9.14L4.208 5.546l7.756 5.212V5.92l2.494 3.39L16.201 0l2.026 9.694 2.902-3.774-.537 4.838 7.512-5.212-4.738 7.448h4.738l-3.861 2.304.79.183h.036l1.71.406 6.006 1.388-.064.014.064.014-2.093.396-6.288 1.294 3.7 3.015h-4.47l4.939 7.03-7.763-5.222v4.838l-2.494-3.39-1.743 9.31z" style="fill:#000;stroke:none" transform="translate(7.609 6.713)"/>
    </g>
</svg>
