<svg xmlns="http://www.w3.org/2000/svg" width="16" height="16" viewBox="0 0 16 16">
    <g transform="translate(-653 -485.063)">
        <rect data-name="Rectangle 1998" width="16" height="16" rx="8" transform="translate(653 485.063)" style="fill:#39d8ff"/>
        <path data-name="Union 38" d="M656.413 497.238v-.365a.235.235 0 0 1 .247-.22h.411v-6.595a.471.471 0 0 1 .5-.437h3.089v-.695h-.747v-.7h.744v-.7h.742v.7h.745v.7h-.742v.7h3.094a.469.469 0 0 1 .5.437v6.59h.412a.233.233 0 0 1 .247.22v.366zm3.958-2.124v1.539h1.321v-1.539a.235.235 0 0 0-.246-.22h-.826a.236.236 0 0 0-.249.22zm1.321-1.759v.732a.236.236 0 0 0 .246.22h.828a.236.236 0 0 0 .247-.22v-.732a.236.236 0 0 0-.247-.22h-.829a.236.236 0 0 0-.245.22zm-2.637 0v.732a.233.233 0 0 0 .245.22h.827a.233.233 0 0 0 .245-.22v-.732c0-.122-.109-.22-1.071-.22a.233.233 0 0 0-.246.22zm2.637-1.759v.736a.235.235 0 0 0 .246.216h.828a.236.236 0 0 0 .247-.216v-.736a.235.235 0 0 0-.247-.216h-.829a.235.235 0 0 0-.245.216zm-2.637 0v.736a.233.233 0 0 0 .245.216h.827a.233.233 0 0 0 .245-.216v-.736a.232.232 0 0 0-.245-.216h-.827a.232.232 0 0 0-.245.216z"/>
    </g>
</svg>
