<svg xmlns="http://www.w3.org/2000/svg" width="18" height="18" viewBox="0 0 18 18">
    <path data-name="Rectangle 1964" style="fill:none" d="M0 0h18v18H0z"/>
    <g data-name="Group 3021">
        <path data-name="Subtraction 21" d="M4.857 14.828H1.7a1.187 1.187 0 1 1 0-2.373h3.16v2.372zm.513-.028v-2.312a1.187 1.187 0 0 1 0 2.308zm7.93-1.3H6.79a1.687 1.687 0 0 0-1.694-1.559H1.7A1.685 1.685 0 0 0 0 13.5v-1.858c0-1.454 1.357-2.283 2.495-2.722.12-.046.246-.091.375-.135L1.43 11.4h3.939V8.255a11.873 11.873 0 0 1 1.279-.075 12.4 12.4 0 0 1 4.154.74c1.138.439 2.495 1.268 2.495 2.724V13.5zM6.647 7.16a3.584 3.584 0 0 1-3.58-3.58v-.1A3.591 3.591 0 0 1 6.493 0h.435c.062 0 .117.009.172.016h.01l.076.011h.016L7.28.04c.064.011.121.023.175.035h.023l.057.014h.019l.067.018h.014c.052.014.1.031.157.049L7.816.2l.035.012h.024L7.9.225l.025.01h.007l.047.017a.03.03 0 0 0 .01.008 3.566 3.566 0 0 1 2.238 3.32V3.638a.052.052 0 0 1 0 .013v.015a3.592 3.592 0 0 1-.469 1.689v.005a.017.017 0 0 0 0 .007l-.029.033-.011.018-.014.022v.007l-.008.013-.008.013a3.593 3.593 0 0 1-2.8 1.676H6.647zM5.07.713a3.244 3.244 0 0 0-.569.4l5.013 4.046a3.232 3.232 0 0 0 .393-1.28zm.956-.348a3.283 3.283 0 0 0-.913.323l4.8 2.771a3.234 3.234 0 0 0-.254-1.148L6.026.365z" transform="translate(2.244 1.296)" style="fill:#39833d"/>
        <path data-name="Path 924" d="M14732 6038.872v-2.109s.613-2.609 6.911-2.609 6.4 2.609 6.4 2.609v2.109h-6.549" transform="translate(-14729.755 -6023.877)" style="stroke:#39833d;stroke-width:.5px;fill:none"/>
    </g>
</svg>
