<svg xmlns="http://www.w3.org/2000/svg" width="48" height="48" viewBox="0 0 48 48">
    <defs>
        <filter id="9c6iwh7b1a" x="0" y="0" width="48" height="48" filterUnits="userSpaceOnUse">
            <feOffset/>
            <feGaussianBlur stdDeviation="1" result="blur"/>
            <feFlood flood-opacity=".161"/>
            <feComposite operator="in" in2="blur"/>
            <feComposite in="SourceGraphic"/>
        </filter>
    </defs>
    <g style="filter:url(#9c6iwh7b1a)">
        <g data-name="Rectangle 1948" transform="translate(3 3)" style="stroke:#000;fill:#39d8ff">
            <rect width="42" height="42" rx="21" style="stroke:none"/>
            <rect x=".5" y=".5" width="41" height="41" rx="20.5" style="fill:none"/>
        </g>
    </g>
    <g data-name="Group 3169">
        <path data-name="Subtraction 21" d="M20.807 36.763h-5.616a2.109 2.109 0 0 1 0-4.218h5.616v4.217zm.909-.057v-4.1a2.109 2.109 0 0 1 0 4.1zm2.528-2.155a3.023 3.023 0 0 0-3.017-2.915h-6.036a3.008 3.008 0 0 0-3.016 2.892.038.038 0 0 1 0-.018v-3.406a4.068 4.068 0 0 1 1.293-2.947 9.024 9.024 0 0 1 3.139-1.894 15.1 15.1 0 0 1 .666-.239l-2.556 4.652h6.539v-.007h.46v-5.587a21.213 21.213 0 0 1 2.273-.132 22.048 22.048 0 0 1 7.386 1.313c2.022.78 4.433 2.253 4.433 4.841v3.306H24.245v.144zm-.256-11.417a6.369 6.369 0 0 1-6.363-6.362v-.168a6.361 6.361 0 0 1 6.087-6.187H24.336c.035 0 .073 0 .117.007h.029c.084.007.194.016.305.03h.039c.037 0 .076.01.113.016h.028l.14.023h.006c.105.019.207.041.3.061h.022c.043.009.084.019.121.03l.019.026h.017l.119.032h.024c.09.025.184.055.279.086a.49.49 0 0 1 .047.017l.065.022.019.007.03.024.039.012.035.015.02.008.083.031a.07.07 0 0 0 .016.007h.006a6.334 6.334 0 0 1 3.974 5.9v.103a.064.064 0 0 1 0 .025v.024a6.385 6.385 0 0 1-.832 3V19.936a.022.022 0 0 0 0 .01l-.028.048-.028.048a.54.54 0 0 0-.032.051l-.014.022-.014.022a6.38 6.38 0 0 1-4.968 2.978h-.286c-.064.018-.112.018-.158.018zm-2.803-11.457a5.83 5.83 0 0 0-1.01.707l8.908 7.195a5.745 5.745 0 0 0 .7-2.275zm1.7-.617a5.8 5.8 0 0 0-1.624.574L29.8 16.56a5.734 5.734 0 0 0-.451-2.041l-6.464-3.458z"/>
        <path data-name="Path 924" d="M14732 6043.43v-4.146s1.09-5.131 12.281-5.131 11.371 5.131 11.371 5.131v4.146h-11.637" transform="translate(-14719.823 -6008.952)" style="stroke-width:.5px;fill:none;stroke:#000"/>
    </g>
</svg>
