<svg xmlns="http://www.w3.org/2000/svg" width="48" height="48" viewBox="0 0 48 48">
    <defs>
        <filter id="ewxdqzdg5a" x="0" y="0" width="48" height="48" filterUnits="userSpaceOnUse">
            <feOffset/>
            <feGaussianBlur stdDeviation="1" result="blur"/>
            <feFlood flood-opacity=".161"/>
            <feComposite operator="in" in2="blur"/>
            <feComposite in="SourceGraphic"/>
        </filter>
    </defs>
    <g style="filter:url(#ewxdqzdg5a)">
        <g data-name="Rectangle 1998" transform="translate(3 3)" style="fill:#39d8ff;stroke:#000">
            <rect width="42" height="42" rx="21" style="stroke:none"/>
            <rect x=".5" y=".5" width="41" height="41" rx="20.5" style="fill:none"/>
        </g>
    </g>
    <path data-name="Union 38" d="M11.924 35v-.956a.616.616 0 0 1 .645-.576h1.077V16.224a1.232 1.232 0 0 1 1.3-1.142h8.078v-1.826h-1.94v-1.824h1.94V9.605h1.94v1.827h1.948v1.824h-1.943v1.826h8.088a1.226 1.226 0 0 1 1.3 1.142v17.243h1.077a.609.609 0 0 1 .645.576v.956zm10.348-5.555v4.023h3.452v-4.023a.613.613 0 0 0-.642-.576h-2.158a.618.618 0 0 0-.652.576zm3.454-4.6v1.914a.617.617 0 0 0 .642.576h2.166a.617.617 0 0 0 .645-.576v-1.913a.617.617 0 0 0-.645-.576h-2.166a.617.617 0 0 0-.644.576zm-6.895 0v1.914a.61.61 0 0 0 .64.576h2.161a.61.61 0 0 0 .64-.576v-1.913c0-.318-.284-.576-2.8-.576a.61.61 0 0 0-.641.576zm6.895-4.6v1.925a.616.616 0 0 0 .642.566h2.166a.616.616 0 0 0 .645-.566v-1.923a.615.615 0 0 0-.645-.566h-2.166a.614.614 0 0 0-.644.566zm-6.895 0v1.925a.608.608 0 0 0 .64.566h2.161a.608.608 0 0 0 .64-.566v-1.923a.607.607 0 0 0-.64-.566h-2.161a.607.607 0 0 0-.64.566z"/>
</svg>
