<svg xmlns="http://www.w3.org/2000/svg" width="24" height="24" viewBox="0 0 24 24">
  <g id="Group_2792" data-name="Group 2792" transform="translate(-1229 -611)">
    <circle id="Ellipse_113" data-name="Ellipse 113" cx="12" cy="12" r="12" transform="translate(1229 611)" fill="rgba(30,30,30,0.7)"/>
    <path id="Icon_material-my-location" data-name="Icon material-my-location" d="M7.5,5A2.5,2.5,0,1,0,10,7.5,2.5,2.5,0,0,0,7.5,5Zm5.587,1.875A5.621,5.621,0,0,0,8.125,1.912V.625H6.875V1.913A5.621,5.621,0,0,0,1.913,6.875H.625v1.25H1.913a5.621,5.621,0,0,0,4.962,4.962v1.288h1.25V13.087a5.621,5.621,0,0,0,4.962-4.962h1.288V6.875Zm-5.587,5A4.375,4.375,0,1,1,11.875,7.5,4.372,4.372,0,0,1,7.5,11.875Z" transform="translate(1233.375 615.375)" fill="#fff"/>
  </g>
</svg>
