<svg xmlns="http://www.w3.org/2000/svg" width="24" height="24" viewBox="0 0 24 24">
    <path data-name="Rectangle 1166" style="fill:none" d="M0 0h24v24H0z"/>
    <path d="M127.2-956.4v-3.6h1.8v3.6zm-3.982 1.282-2.7-2.7 1.282-1.282 2.7 2.7zM120.9-939.3a.871.871 0 0 1-.641-.259.871.871 0 0 1-.259-.641v-7.2l1.89-5.4a1.275 1.275 0 0 1 .484-.652 1.31 1.31 0 0 1 .776-.248h2.25v-1.8h2.947a6.4 6.4 0 0 0-.844 1.676 6.044 6.044 0 0 0-.3 1.924h-3.735l-1.328 3.6h6.21a7.249 7.249 0 0 0 .855 1 5.289 5.289 0 0 0 1.057.8H121.8v3.6h12.6v-2.767a6.32 6.32 0 0 0 .922-.2 6.25 6.25 0 0 0 .878-.338v6.007a.871.871 0 0 1-.259.641.871.871 0 0 1-.641.259h-.9a.871.871 0 0 1-.641-.259.871.871 0 0 1-.259-.641v-.9h-10.8v.9a.871.871 0 0 1-.259.641.871.871 0 0 1-.641.259zm1.8-4.5h2.7a.871.871 0 0 0 .641-.259.871.871 0 0 0 .259-.641.871.871 0 0 0-.259-.641.871.871 0 0 0-.641-.259h-2.7zm10.8 0v-1.8h-2.7a.871.871 0 0 0-.641.259.871.871 0 0 0-.259.641.871.871 0 0 0 .259.641.871.871 0 0 0 .641.259zm-11.7-2.7zm11.047-3.375 3.128-3.1-.945-.945-2.183 2.137-.877-.877-.945.967zm.653-6.525a4.337 4.337 0 0 1 3.184 1.316A4.337 4.337 0 0 1 138-951.9a4.338 4.338 0 0 1-1.316 3.184 4.337 4.337 0 0 1-3.184 1.316 4.337 4.337 0 0 1-3.184-1.316A4.338 4.338 0 0 1 129-951.9a4.337 4.337 0 0 1 1.316-3.184 4.337 4.337 0 0 1 3.184-1.316z" transform="translate(-117 961.5)" style="fill:#39833d"/>
</svg>
