<svg xmlns="http://www.w3.org/2000/svg" width="24" height="24" viewBox="0 0 24 24">
    <path data-name="Rectangle 1314" style="fill:none" d="M0 0h24v24H0z"/>
    <path data-name="Path 929" d="M-15754.041-22421.67h-18a1 1 0 0 1-1-1v-16a1 1 0 0 1 1-1 1 1 0 0 1 1 1v15h17a1 1 0 0 1 1 1 1 1 0 0 1-1 1z" transform="translate(15775.04 22442.67)" style="fill:#39833d"/>
    <path data-name="Rectangle 1644" transform="translate(7 10)" style="fill:#39833d" d="M0 0h2v6H0z"/>
    <path data-name="Rectangle 1645" transform="translate(11 7)" style="fill:#39833d" d="M0 0h2v9H0z"/>
    <path data-name="Rectangle 1646" transform="translate(15 10)" style="fill:#39833d" d="M0 0h2v6H0z"/>
    <path data-name="Rectangle 1647" transform="translate(19 4)" style="fill:#39833d" d="M0 0h2v12H0z"/>
</svg>
