<svg id="ic_avatar" xmlns="http://www.w3.org/2000/svg" width="32" height="32" viewBox="0 0 32 32">
  <rect id="Rectangle_950" data-name="Rectangle 950" width="32" height="32" fill="none"/>
  <path id="account_circle_24dp_FILL0_wght400_GRAD0_opsz24" d="M85.133-859.867a13.912,13.912,0,0,1,3.8-2.05,12.986,12.986,0,0,1,4.4-.75,12.986,12.986,0,0,1,4.4.75,13.912,13.912,0,0,1,3.8,2.05,10.3,10.3,0,0,0,1.817-3.1,10.45,10.45,0,0,0,.65-3.7,10.283,10.283,0,0,0-3.117-7.55,10.283,10.283,0,0,0-7.55-3.117,10.283,10.283,0,0,0-7.55,3.117,10.283,10.283,0,0,0-3.117,7.55,10.45,10.45,0,0,0,.65,3.7A10.3,10.3,0,0,0,85.133-859.867Zm8.2-5.466a4.508,4.508,0,0,1-3.317-1.35A4.509,4.509,0,0,1,88.667-870a4.509,4.509,0,0,1,1.35-3.317,4.508,4.508,0,0,1,3.317-1.35,4.508,4.508,0,0,1,3.317,1.35A4.509,4.509,0,0,1,98-870a4.509,4.509,0,0,1-1.35,3.317A4.508,4.508,0,0,1,93.333-865.333Zm0,12a12.978,12.978,0,0,1-5.2-1.05,13.46,13.46,0,0,1-4.233-2.85,13.464,13.464,0,0,1-2.85-4.233,12.983,12.983,0,0,1-1.05-5.2,12.984,12.984,0,0,1,1.05-5.2A13.464,13.464,0,0,1,83.9-876.1a13.463,13.463,0,0,1,4.233-2.85,12.982,12.982,0,0,1,5.2-1.05,12.982,12.982,0,0,1,5.2,1.05,13.462,13.462,0,0,1,4.233,2.85,13.463,13.463,0,0,1,2.85,4.233,12.983,12.983,0,0,1,1.05,5.2,12.982,12.982,0,0,1-1.05,5.2,13.463,13.463,0,0,1-2.85,4.233,13.46,13.46,0,0,1-4.233,2.85A12.978,12.978,0,0,1,93.333-853.333Zm0-2.667a10.575,10.575,0,0,0,3.333-.517A10.035,10.035,0,0,0,99.533-858a10.042,10.042,0,0,0-2.867-1.484A10.579,10.579,0,0,0,93.333-860a10.579,10.579,0,0,0-3.333.516A10.042,10.042,0,0,0,87.133-858,10.035,10.035,0,0,0,90-856.517,10.575,10.575,0,0,0,93.333-856Zm0-12a1.943,1.943,0,0,0,1.433-.567A1.943,1.943,0,0,0,95.333-870a1.943,1.943,0,0,0-.567-1.434A1.943,1.943,0,0,0,93.333-872a1.943,1.943,0,0,0-1.433.567A1.943,1.943,0,0,0,91.333-870a1.943,1.943,0,0,0,.567,1.433A1.942,1.942,0,0,0,93.333-868ZM93.333-870ZM93.333-858Z" transform="translate(-77.333 882.667)" fill="#fff"/>
</svg>
