<svg id="ic_stastic" xmlns="http://www.w3.org/2000/svg" width="24" height="24" viewBox="0 0 24 24">
  <rect id="Rectangle_1314" data-name="Rectangle 1314" width="24" height="24" fill="none"/>
  <path id="Path_929" data-name="Path 929" d="M-15754.041-22421.67h-18a1,1,0,0,1-1-1v-16a1,1,0,0,1,1-1,1,1,0,0,1,1,1v15h17a1,1,0,0,1,1,1A1,1,0,0,1-15754.041-22421.67Z" transform="translate(15775.04 22442.67)" fill="#39833d"/>
  <rect id="Rectangle_1644" data-name="Rectangle 1644" width="2" height="6" transform="translate(7 10)" fill="#39833d"/>
  <rect id="Rectangle_1645" data-name="Rectangle 1645" width="2" height="9" transform="translate(11 7)" fill="#39833d"/>
  <rect id="Rectangle_1646" data-name="Rectangle 1646" width="2" height="6" transform="translate(15 10)" fill="#39833d"/>
  <rect id="Rectangle_1647" data-name="Rectangle 1647" width="2" height="12" transform="translate(19 4)" fill="#39833d"/>
</svg>
