<svg xmlns="http://www.w3.org/2000/svg" width="24" height="24" viewBox="0 0 24 24">
    <path data-name="Rectangle 1172" style="fill:none" d="M0 0h24v24H0z"/>
    <path d="M122-822a1.926 1.926 0 0 1-1.412-.588A1.926 1.926 0 0 1 120-824v-14a1.926 1.926 0 0 1 .588-1.413A1.926 1.926 0 0 1 122-840h14a1.926 1.926 0 0 1 1.413.587A1.926 1.926 0 0 1 138-838v14a1.926 1.926 0 0 1-.587 1.412A1.926 1.926 0 0 1 136-822zm0-2h6v-14h-6zm8 0h6v-7h-6zm0-9h6v-5h-6z" transform="translate(-117 843)" style="fill:#39833d"/>
</svg>
