<svg xmlns="http://www.w3.org/2000/svg" width="18" height="18" viewBox="0 0 18 18">
  <g id="icn_wounded" transform="translate(-526 -180)">
    <rect id="Rectangle_1964" data-name="Rectangle 1964" width="18" height="18" transform="translate(526 180)" fill="none"/>
    <g id="Group_3021" data-name="Group 3021" transform="translate(-1.631 -37.702)">
      <path id="Subtraction_21" data-name="Subtraction 21" d="M4.857,14.828H1.7a1.187,1.187,0,1,1,0-2.373h3.16v2.372ZM5.37,14.8h0V12.488a1.187,1.187,0,0,1,0,2.308ZM13.3,13.5h0l-6.51,0a1.687,1.687,0,0,0-1.694-1.559H1.7A1.685,1.685,0,0,0,0,13.5l0-1.858C0,10.188,1.357,9.359,2.495,8.92c.12-.046.246-.091.375-.135L1.43,11.4H5.11v0h.259V8.255A11.873,11.873,0,0,1,6.648,8.18a12.4,12.4,0,0,1,4.154.74c1.138.439,2.495,1.268,2.495,2.724V13.5ZM6.647,7.16A3.584,3.584,0,0,1,3.067,3.58c0-.031,0-.064,0-.1A3.591,3.591,0,0,1,6.493,0l.044,0h.029l.082,0,.085,0h.049l.036,0,.028,0c.021,0,.043,0,.066,0h.016c.062,0,.117.009.172.016l.01,0,.076.011h.005l.011,0,.078.013c.064.011.121.023.175.035l.012,0,.011,0,.057.014.01,0,.009,0,.067.018.007,0,.007,0c.052.014.1.031.157.049L7.816.2l.035.012.012,0,.012,0L7.9.225l.025.01.007,0,.047.017A.03.03,0,0,0,7.989.26a3.566,3.566,0,0,1,2.238,3.32c0,.009,0,.018,0,.028s0,.02,0,.03a.052.052,0,0,1,0,.013s0,.01,0,.015a3.592,3.592,0,0,1-.469,1.689l0,.005a.017.017,0,0,0,0,.007L9.729,5.4l-.011.018c-.005.008-.01.015-.014.022l0,.007-.008.013-.008.013a3.593,3.593,0,0,1-2.8,1.676H6.874l-.028,0-.033,0H6.647ZM5.07.713a3.244,3.244,0,0,0-.569.4L9.514,5.159a3.232,3.232,0,0,0,.393-1.28ZM6.026.365a3.283,3.283,0,0,0-.913.323l4.8,2.771a3.234,3.234,0,0,0-.254-1.148L6.026.365Z" transform="translate(530 218.999)" fill="#39833d"/>
      <path id="Path_924" data-name="Path 924" d="M14732,6038.872v-2.109s.613-2.609,6.911-2.609,6.4,2.609,6.4,2.609v2.109h-6.549" transform="translate(-14201.999 -5806.174)" fill="none" stroke="#39833d" stroke-width="0.5"/>
    </g>
  </g>
</svg>
