<svg xmlns="http://www.w3.org/2000/svg" width="18" height="18" viewBox="0 0 18 18">
  <g id="icn_location" transform="translate(-1226 -597)">
    <rect id="Rectangle_1969" data-name="Rectangle 1969" width="18" height="18" transform="translate(1226 597)" fill="none"/>
    <path id="Icon_material-my-location" data-name="Icon material-my-location" d="M8.625,5.716a2.909,2.909,0,1,0,2.909,2.909A2.908,2.908,0,0,0,8.625,5.716Zm6.5,2.182A6.541,6.541,0,0,0,9.352,2.123V.625H7.9v1.5A6.541,6.541,0,0,0,2.123,7.9H.625V9.352h1.5A6.541,6.541,0,0,0,7.9,15.127v1.5H9.352v-1.5a6.541,6.541,0,0,0,5.775-5.775h1.5V7.9Zm-6.5,5.818a5.091,5.091,0,1,1,5.091-5.091A5.087,5.087,0,0,1,8.625,13.716Z" transform="translate(1226.375 597.375)" fill="#39833d"/>
  </g>
</svg>
