<svg xmlns="http://www.w3.org/2000/svg" width="18" height="18" viewBox="0 0 18 18">
  <g id="icn_default_map" data-name="icn_default map" transform="translate(-163 -660)">
    <rect id="Rectangle_1979" data-name="Rectangle 1979" width="18" height="18" transform="translate(163 660)" fill="none"/>
    <g id="Union_21" data-name="Union 21" transform="translate(16007 6467.001)" fill="#39833d">
      <path d="M -15832.25 -5793.00341796875 L -15833.140625 -5793.00341796875 L -15833.236328125 -5793.00341796875 L -15839.8349609375 -5793.00341796875 C -15839.91015625 -5793.00341796875 -15839.96875 -5793.0634765625 -15839.96875 -5793.140625 L -15839.96875 -5796.42431640625 C -15839.96875 -5796.49951171875 -15839.9091796875 -5796.56103515625 -15839.8349609375 -5796.56103515625 L -15836.1103515625 -5796.56103515625 C -15835.7509765625 -5796.56103515625 -15835.5595703125 -5796.41064453125 -15834.8974609375 -5795.76904296875 L -15834.85546875 -5795.71533203125 L -15834.787109375 -5795.66259765625 L -15834.7607421875 -5795.63623046875 L -15832.41015625 -5793.16650390625 L -15832.404296875 -5793.16064453125 L -15832.3984375 -5793.1552734375 L -15832.25 -5793.00341796875 Z M -15830.005859375 -5795.2578125 L -15830.146484375 -5795.39697265625 L -15830.15234375 -5795.4033203125 L -15830.1591796875 -5795.40966796875 L -15832.568359375 -5797.7138671875 L -15832.65234375 -5797.8017578125 L -15832.6650390625 -5797.8173828125 L -15832.6884765625 -5797.83984375 L -15832.7470703125 -5797.9013671875 C -15833.3896484375 -5798.56884765625 -15833.5400390625 -5798.76123046875 -15833.5400390625 -5799.12353515625 L -15833.5400390625 -5802.86474609375 C -15833.5400390625 -5802.93896484375 -15833.4794921875 -5803.00146484375 -15833.4072265625 -5803.00146484375 L -15830.134765625 -5803.00146484375 C -15830.0625 -5803.00146484375 -15830.001953125 -5802.93896484375 -15830.001953125 -5802.86474609375 L -15830.001953125 -5796.2412109375 L -15830.001953125 -5796.23583984375 L -15830.005859375 -5796.20068359375 L -15830.005859375 -5796.14599609375 L -15830.005859375 -5795.2578125 Z M -15836.4619140625 -5799.44384765625 L -15839.998046875 -5799.44384765625 L -15840 -5803 L -15836.4599609375 -5803.00146484375 L -15836.4619140625 -5799.44384765625 Z" stroke="none"/>
      <path d="M -15834.5869140625 -5794.00341796875 L -15835.4521484375 -5794.91259765625 L -15835.564453125 -5794.998046875 L -15835.6435546875 -5795.09912109375 C -15835.822265625 -5795.2724609375 -15836.0380859375 -5795.47900390625 -15836.1533203125 -5795.56103515625 L -15838.96875 -5795.56103515625 L -15838.96875 -5794.00341796875 L -15834.5869140625 -5794.00341796875 M -15831.001953125 -5797.599609375 L -15831.001953125 -5802.00146484375 L -15832.5400390625 -5802.00146484375 L -15832.5400390625 -5799.1611328125 C -15832.4521484375 -5799.037109375 -15832.21875 -5798.794921875 -15832.0263671875 -5798.59521484375 L -15831.8466796875 -5798.40771484375 L -15831.001953125 -5797.599609375 M -15837.4619140625 -5800.44384765625 L -15837.4619140625 -5802.00146484375 L -15839 -5802.00146484375 L -15839 -5800.44384765625 L -15837.4619140625 -5800.44384765625 M -15831.0498046875 -5792.00341796875 L -15833.140625 -5792.00341796875 C -15833.1806640625 -5792.00341796875 -15833.2080078125 -5792.00341796875 -15833.236328125 -5792.00341796875 L -15839.8349609375 -5792.00341796875 C -15840.4638671875 -5792.00341796875 -15840.96875 -5792.51220703125 -15840.96875 -5793.140625 L -15840.96875 -5796.42431640625 C -15840.96875 -5797.04833984375 -15840.4638671875 -5797.56103515625 -15839.8349609375 -5797.56103515625 L -15836.1103515625 -5797.56103515625 C -15835.3115234375 -5797.56103515625 -15834.8662109375 -5797.1318359375 -15834.1982421875 -5796.48388671875 C -15834.177734375 -5796.4677734375 -15834.162109375 -5796.4521484375 -15834.146484375 -5796.43212890625 L -15834.1259765625 -5796.41650390625 C -15834.0986328125 -5796.388671875 -15834.0703125 -5796.36083984375 -15834.04296875 -5796.3330078125 L -15831.685546875 -5793.85595703125 L -15830.779296875 -5792.93359375 C -15830.576171875 -5792.71923828125 -15830.576171875 -5792.369140625 -15830.787109375 -5792.154296875 C -15830.8544921875 -5792.0791015625 -15830.9462890625 -5792.02734375 -15831.0498046875 -5792.00341796875 Z M -15829.546875 -5793.62353515625 C -15829.6865234375 -5793.62353515625 -15829.826171875 -5793.67431640625 -15829.9326171875 -5793.7763671875 L -15830.8505859375 -5794.68701171875 L -15833.3193359375 -5797.04833984375 C -15833.34765625 -5797.076171875 -15833.375 -5797.10791015625 -15833.3984375 -5797.1357421875 L -15833.4189453125 -5797.15576171875 C -15833.4345703125 -5797.171875 -15833.4501953125 -5797.1875 -15833.466796875 -5797.20361328125 L -15833.466796875 -5797.20751953125 C -15834.1142578125 -5797.87939453125 -15834.5400390625 -5798.32080078125 -15834.5400390625 -5799.12353515625 L -15834.5400390625 -5802.86474609375 C -15834.5400390625 -5803.49267578125 -15834.03125 -5804.00146484375 -15833.4072265625 -5804.00146484375 L -15830.134765625 -5804.00146484375 C -15829.5107421875 -5804.00146484375 -15829.001953125 -5803.49267578125 -15829.001953125 -5802.86474609375 L -15829.001953125 -5796.2412109375 C -15829.001953125 -5796.21337890625 -15829.001953125 -5796.181640625 -15829.005859375 -5796.14599609375 L -15829.005859375 -5794.04296875 C -15829.025390625 -5793.943359375 -15829.0771484375 -5793.85205078125 -15829.1533203125 -5793.7802734375 C -15829.26171875 -5793.67626953125 -15829.404296875 -5793.62353515625 -15829.546875 -5793.62353515625 Z M -15836.4599609375 -5798.44384765625 L -15839.998046875 -5798.44384765625 C -15840.55078125 -5798.44384765625 -15841 -5798.89306640625 -15841 -5799.44189453125 L -15841 -5803 C -15841 -5803.55224609375 -15840.55078125 -5804.00146484375 -15839.998046875 -5804.00146484375 L -15836.4599609375 -5804.00146484375 C -15835.9072265625 -5804.00146484375 -15835.4619140625 -5803.55224609375 -15835.4619140625 -5803 L -15835.4619140625 -5799.44189453125 C -15835.4619140625 -5798.89306640625 -15835.9072265625 -5798.44384765625 -15836.4599609375 -5798.44384765625 Z" stroke="none" fill="#39833d"/>
    </g>
  </g>
</svg>
