<svg xmlns="http://www.w3.org/2000/svg" xmlns:xlink="http://www.w3.org/1999/xlink" width="42" height="42"
  viewBox="0 0 21 21">
  <defs>
    <filter id="Rectangle_1948" x="0" y="0" width="84" height="84" filterUnits="userSpaceOnUse">
      <feOffset input="SourceAlpha" />
      <feGaussianBlur stdDeviation="1" result="blur" />
      <feFlood flood-opacity="0.161" />
      <feComposite operator="in" in2="blur" />
      <feComposite in="SourceGraphic" />
    </filter>
  </defs>
  <g id="Component_72_1" data-name="Component 72 – 1" transform="translate(3 3)">
    <g transform="matrix(1, 0, 0, 1, -3, -3)" filter="url(#Rectangle_1948)">
      <g id="Rectangle_1948-2" data-name="Rectangle 1948" transform="translate(3 3)" fill="#3463ff" stroke="#fff"
        stroke-width="1">
        <rect width="15" height="15" rx="4" stroke="none" />
        <rect x="0.5" y="0.5" width="14" height="14" rx="3.5" fill="none" />
      </g>
    </g>
    <g id="Group_3039" data-name="Group 3039" transform="translate(2.82 3.698)">
      <path id="Path_915" data-name="Path 915"
        d="M9.292,5.38l.491-.666A7.271,7.271,0,0,0,5.2,3,7.245,7.245,0,0,0,.63,4.713L5.2,10.924l0,.008,0,0L7.75,7.474Z"
        transform="translate(-0.63 -3)" fill="rgba(255,255,255,0.3)" />
      <path id="Union_7" data-name="Union 7"
        d="M3.2,5.612l0,0h0l0,0,0,0-.017-.034L0,1.259c.012-.009.032-.027.06-.052A4.654,4.654,0,0,1,3.158,0h.07A5.232,5.232,0,0,1,6.442,1.11l.029.023L3.218,5.575,3.2,5.609l0,0h0Z"
        transform="translate(1.378 2.319)" fill="#fff" />
    </g>
  </g>
</svg>