<svg xmlns="http://www.w3.org/2000/svg" width="18" height="18" viewBox="0 0 18 18">
  <g id="icn_satellite_map" data-name="icn_satellite map" transform="translate(-152 -623)">
    <rect id="Rectangle_1977" data-name="Rectangle 1977" width="18" height="18" transform="translate(152 623)" fill="none"/>
    <path id="Icon_awesome-satellite-dish" data-name="Icon awesome-satellite-dish" d="M5.9,10.811l.856-.856A.914.914,0,0,0,7,10,1,1,0,1,0,6,9a.914.914,0,0,0,.05.244l-.856.856L1.544,6.454a.5.5,0,0,0-.781.094,6.417,6.417,0,0,0,8.689,8.689.492.492,0,0,0,.094-.781ZM6.532,0A.5.5,0,0,0,6,.5v.988a.5.5,0,0,0,.469.5A8.027,8.027,0,0,1,14,9.533a.5.5,0,0,0,.5.469h1A.5.5,0,0,0,16,9.47,10.025,10.025,0,0,0,6.532,0Zm.009,3A.5.5,0,0,0,6,3.5v1a.5.5,0,0,0,.463.5,4.992,4.992,0,0,1,4.529,4.538.5.5,0,0,0,.5.459H12.5a.506.506,0,0,0,.5-.541A7.032,7.032,0,0,0,6.542,3Z" transform="translate(153 624)" fill="#39833d"/>
  </g>
</svg>
