<svg xmlns="http://www.w3.org/2000/svg" width="18" height="18" viewBox="0 0 18 18">
  <g id="icn_full_screen" data-name="icn_full screen" transform="translate(-1226 -180)">
    <rect id="Rectangle_1968" data-name="Rectangle 1968" width="18" height="18" transform="translate(1226 180)" fill="none"/>
    <path id="zoom_out_map_24dp_FILL0_wght400_GRAD0_opsz24" d="M120-824v-5.333h1.778v2.311l2.756-2.756,1.244,1.244-2.756,2.756h2.311V-824Zm10.667,0v-1.778h2.311l-2.756-2.756,1.244-1.244,2.756,2.756v-2.311H136V-824Zm-6.133-10.222-2.756-2.756v2.311H120V-840h5.333v1.778h-2.311l2.756,2.755Zm6.933,0-1.244-1.245,2.756-2.755h-2.311V-840H136v5.333h-1.778v-2.311Z" transform="translate(1107 1021)" fill="#3c8540"/>
  </g>
</svg>
