<svg id="img_logo" xmlns="http://www.w3.org/2000/svg" xmlns:xlink="http://www.w3.org/1999/xlink" width="120" height="13.727" viewBox="0 0 120 13.727">
  <defs>
    <clipPath id="clip-path">
      <rect id="Rectangle_1460" data-name="Rectangle 1460" width="120" height="13.727" fill="#fff"/>
    </clipPath>
  </defs>
  <g id="Group_2165" data-name="Group 2165" clip-path="url(#clip-path)">
    <path id="Path_857" data-name="Path 857" d="M25.385,12.429A6.021,6.021,0,1,1,31.408,6.41a6.028,6.028,0,0,1-6.023,6.019m0-10.762h0A4.743,4.743,0,1,0,30.127,6.41a4.748,4.748,0,0,0-4.742-4.743" transform="translate(-3.535 -0.071)" fill="#fff"/>
    <path id="Path_858" data-name="Path 858" d="M70.688,11.475C69.533,4.045,67.464.734,63.981.734S58.43,4.045,57.274,11.475a.635.635,0,0,0,.534.728.454.454,0,0,0,.1.01.642.642,0,0,0,.63-.544c1.037-6.68,2.719-9.657,5.443-9.657s4.4,2.977,5.443,9.657a.642.642,0,0,0,.631.544.484.484,0,0,0,.1-.01.636.636,0,0,0,.532-.728" transform="translate(-10.457 -0.134)" fill="#fff"/>
    <path id="Path_859" data-name="Path 859" d="M49.509,9.537a.636.636,0,0,0-.9.092,4.626,4.626,0,0,1-3.67,1.525,4.748,4.748,0,1,1,0-9.487,4.618,4.618,0,0,1,3.67,1.525.639.639,0,0,0,.987-.812A5.783,5.783,0,0,0,44.941.388a6.025,6.025,0,1,0,0,12.042A5.767,5.767,0,0,0,49.6,10.438a.64.64,0,0,0-.09-.9" transform="translate(-7.068 -0.071)" fill="#fff"/>
    <path id="Path_860" data-name="Path 860" d="M12.818,12.025a.637.637,0,0,0-.9-.063A2.441,2.441,0,0,1,8.763,11.9c-.069-.049-.152-.087-.226-.132a6.023,6.023,0,1,0-5.113-.039,3.967,3.967,0,0,0-.584.436.639.639,0,0,0,.866.941,3.68,3.68,0,0,1,4.312-.167,4.231,4.231,0,0,0,2.456.839,3.447,3.447,0,0,0,2.278-.85.642.642,0,0,0,.066-.9M1.278,6.3a4.743,4.743,0,1,1,4.747,4.746c-.062,0-.123-.01-.184-.009A4.746,4.746,0,0,1,1.278,6.3" transform="translate(0 -0.051)" fill="#fff"/>
    <path id="Path_861" data-name="Path 861" d="M88.61,2.358l-4.7-2.3a.6.6,0,0,0-.526,0L78.693,2.343a.6.6,0,0,0-.337.539v4.1c0,3.133,4.015,5.355,5.3,5.355,1.241,0,5.3-2.282,5.3-5.355V2.9a.6.6,0,0,0-.336-.539m-.864,4.628c0,2.33-3.459,4.155-4.1,4.155-.658,0-4.1-1.773-4.1-4.155V3.258l4.089-1.99,4.1,2Z" transform="translate(-14.308 0)" fill="#fff"/>
    <path id="Path_862" data-name="Path 862" d="M83.683,4.17V6.4H81.454V7.466h2.229V9.694H84.75V7.466h2.228V6.4H84.75V4.17Z" transform="translate(-14.874 -0.762)" fill="#fff"/>
    <path id="Path_863" data-name="Path 863" d="M143.57,12.171a.6.6,0,0,1-.6-.6V2.035l-4.355,3.122a.6.6,0,0,1-.7,0l-4.358-3.086v9.5a.6.6,0,0,1-1.2,0V.913a.6.6,0,0,1,.946-.49l4.956,3.509L143.22.379a.6.6,0,0,1,.949.487V11.571a.6.6,0,0,1-.6.6" transform="translate(-24.17 -0.049)" fill="#fff"/>
    <path id="Path_864" data-name="Path 864" d="M107.245,12.172a.6.6,0,0,1-.537-.332l-4.816-9.631L97.076,11.84A.6.6,0,0,1,96,11.3L101.356.6a.6.6,0,0,1,1.073,0l5.352,10.7a.6.6,0,0,1-.536.869" transform="translate(-17.519 -0.049)" fill="#fff"/>
    <path id="Path_865" data-name="Path 865" d="M123.142,7.25A3.622,3.622,0,0,0,121.79.267h-6.048a.6.6,0,0,0-.6.6V11.572a.6.6,0,1,0,1.2,0V7.515h3.814a4.062,4.062,0,0,1,4.057,4.058.6.6,0,0,0,1.2,0,5.255,5.255,0,0,0-2.272-4.322m-6.8-5.783h5.448a2.424,2.424,0,0,1,0,4.848h-5.448Z" transform="translate(-21.026 -0.049)" fill="#fff"/>
  </g>
</svg>
