<svg xmlns="http://www.w3.org/2000/svg" width="18" height="18" viewBox="0 0 18 18">
  <g id="mount_on" data-name="mount on" transform="translate(-796 -454)">
    <path id="Union_18" data-name="Union 18" d="M-14408-9200.207v-1.109c0-2.59,3.186-3.389,4.773-3.389s4.772.8,4.772,3.389v1.109Zm2.987-6.133a.994.994,0,0,0,.26-.209.919.919,0,0,0,.217-.666v-.039l-.014-.036a1.964,1.964,0,0,1-.048-.329v-.055a1.4,1.4,0,0,1,.413-.951,1.37,1.37,0,0,1,.961-.394,1.378,1.378,0,0,1,1.374,1.374,1.633,1.633,0,0,1-.047.354l-.014.036v.039a.9.9,0,0,0,.217.666.88.88,0,0,0,.26.209,2.193,2.193,0,0,1-1.79.912A2.188,2.188,0,0,1-14405.015-9206.34Zm3.615-.474a.5.5,0,0,1-.115-.376,1.734,1.734,0,0,0,.062-.455,1.775,1.775,0,0,0-1.772-1.772,1.769,1.769,0,0,0-1.24.507,1.776,1.776,0,0,0-.531,1.229v.072a1.843,1.843,0,0,0,.058.419.491.491,0,0,1-.115.376,1.007,1.007,0,0,1-.727.243c-.048,0-.084,0-.1,0h-.019s0-.008,0-.008a.66.66,0,0,1-.423-.574,3.449,3.449,0,0,1,.105-1.707,2.886,2.886,0,0,1,2.549-2.094,2.9,2.9,0,0,1,.456-.043,2.8,2.8,0,0,1,.448.043,2.89,2.89,0,0,1,2.531,2.094,3.423,3.423,0,0,1,.1,1.707.66.66,0,0,1-.423.574,0,0,0,0,1,0,0s0,0-.007,0h-.008c-.018,0-.051,0-.1,0A1.01,1.01,0,0,1-14401.4-9206.813Z" transform="translate(15208.002 9669)" fill="#8c8c8c"/>
    <rect id="Rectangle_1983" data-name="Rectangle 1983" width="18" height="18" transform="translate(796 454)" fill="none"/>
  </g>
</svg>
