<svg xmlns="http://www.w3.org/2000/svg" width="18" height="18" viewBox="0 0 18 18">
  <g id="update_time" data-name="update time" transform="translate(-796 -494)">
    <path id="Icon_open-timer" data-name="Icon open-timer" d="M2.427,0V1.213H3.64V1.25A4.25,4.25,0,1,0,8.493,5.46a4.121,4.121,0,0,0-.3-1.517l-1.1.461A2.919,2.919,0,0,1,7.28,5.472,3.033,3.033,0,1,1,4.246,2.439a2.966,2.966,0,0,1,1.068.194l.413-1.14A5.08,5.08,0,0,0,4.853,1.3V1.225H6.066V.012H2.427ZM8.493,1.407S4.064,4.817,3.834,5.047a.593.593,0,0,0,0,.837.572.572,0,0,0,.837,0c.243-.243,3.834-4.477,3.834-4.477Z" transform="translate(801 498)" fill="#8c8c8c"/>
    <rect id="Rectangle_1985" data-name="Rectangle 1985" width="18" height="18" transform="translate(796 494)" fill="none"/>
  </g>
</svg>
